<svg xmlns="http://www.w3.org/2000/svg" width="51.78" height="90" viewBox="0 0 51.78 90">
  <defs>
    <style>
      .cls-1 {
        fill: #cda553;
        fill-rule: evenodd;
      }
    </style>
  </defs>
  <path id="pin_big" class="cls-1" d="M987.886,1259A25.675,25.675,0,0,0,962,1284.46c0,0.73.042,1.43,0.1,2.15,0.025,0.25.057,0.51,0.088,0.76,0.046,0.43.1,0.85,0.176,1.27,0.056,0.33.109,0.66,0.18,0.99,0.046,0.22.105,0.45,0.154,0.67,2.354,10.08,10.325,18.16,16.469,31.99a132.4,132.4,0,0,1,4.754,12.63l3.966,14.08,3.965-14.08a133.213,133.213,0,0,1,4.754-12.63c6.145-13.83,14.115-21.91,16.465-31.99,0.06-.22.1-0.45,0.15-0.67q0.1-.5.18-0.99c0.07-.42.14-0.84,0.18-1.27,0.04-.25.07-0.51,0.09-0.76,0.06-.72.1-1.43,0.1-2.15A25.676,25.676,0,0,0,987.886,1259Zm0,36.96a11.507,11.507,0,1,1,11.7-11.51A11.6,11.6,0,0,1,987.882,1295.96Z" transform="translate(-962 -1259)"/>
</svg>
